<?xml version="1.0" encoding="UTF-8"?>
<svg version="1.1" xmlns="http://www.w3.org/2000/svg" width="2480" height="3508">
<path d="M0 0 C178.86 0 357.72 0 542 0 C542 88.11 542 176.22 542 267 C542.66 266.67 543.32 266.34 544 266 C578.42390873 261.42643047 622.25217151 259.93746308 651.7734375 280.9765625 C662.04517051 289.54202757 666.20860274 299.8937306 668.75 312.8125 C668.86517088 314.20606765 668.94297325 315.60284464 669 317 C669.0515625 318.06734375 669.103125 319.1346875 669.15625 320.234375 C669.35038213 328.16143704 668.79947117 335.84677051 667.76025391 343.70581055 C667.56198218 345.20838048 667.56198218 345.20838048 667.35970497 346.74130535 C665.92720186 357.15250423 663.82391747 367.38164746 661.5859375 377.64453125 C661.16590938 379.60211369 660.74662384 381.5598556 660.32803345 383.51774597 C659.46124322 387.56310435 658.58861556 391.60713659 657.7109375 395.65014648 C656.58509561 400.83663 655.46998687 406.02534787 654.35857201 411.21494007 C653.29214203 416.19224964 652.2204734 421.16842667 651.1484375 426.14453125 C650.94526287 427.08984018 650.74208824 428.03514912 650.53275681 429.00910378 C649.96144039 431.66271662 649.38638446 434.31548883 648.81005859 436.96801758 C648.55602516 438.15135429 648.55602516 438.15135429 648.29685974 439.3585968 C647.11480213 444.77039573 647.11480213 444.77039573 646 447 C623.56 447 601.12 447 578 447 C575.69 438.75 573.38 430.5 571 422 C567.52913604 423.73543198 566.47731027 424.37323718 564.125 427.0625 C560.70342132 430.60334939 556.93189174 433.22530093 552.8125 435.875 C551.90298584 436.46486694 551.90298584 436.46486694 550.97509766 437.06665039 C547.91236351 438.99470963 545.55490414 440.11127397 542 441 C542 456.18 542 471.36 542 487 C440.03 487 338.06 487 233 487 C232.01 492.94 232.01 492.94 231 499 C229.02 507.91 227.04 516.82 225 526 C188.7 526 152.4 526 115 526 C117.01790317 512.88362939 120.01596006 499.93083975 123 487 C82.41 487 41.82 487 0 487 C0 326.29 0 165.58 0 0 Z M548 300 C541.53695363 308.02526823 541.23666752 315.08809887 541.625 325.125 C541.65517036 326.47650236 541.6825336 327.82807042 541.70703125 329.1796875 C541.77721304 332.45483775 541.87549745 335.72654074 542 339 C547.15964963 338.88133035 552.31912316 338.7570551 557.47851562 338.62768555 C559.23205946 338.58449402 560.98564108 338.54280845 562.73925781 338.50268555 C565.26639165 338.44459876 567.79333804 338.38101701 570.3203125 338.31640625 C571.09867462 338.29969376 571.87703674 338.28298126 572.6789856 338.26576233 C576.87551289 338.1527014 580.86538737 337.80794586 585 337 C589.6150285 317.04215667 589.6150285 317.04215667 584 298 C574.36569312 289.77069621 556.79035477 290.73449091 548 300 Z M542 367 C541.9072167 368.38160115 541.88252957 369.76788038 541.88647461 371.15258789 C541.88655014 372.03342545 541.88662567 372.914263 541.88670349 373.8217926 C541.89186478 374.77907761 541.89702606 375.73636261 541.90234375 376.72265625 C541.9037587 377.69786728 541.90517365 378.67307831 541.90663147 379.67784119 C541.91224867 382.80609143 541.92480407 385.93427123 541.9375 389.0625 C541.94251278 391.17773334 541.94707607 393.29296781 541.95117188 395.40820312 C541.96222369 400.60549296 541.97897854 405.80274145 542 411 C552.30010882 411.33616839 559.03927705 409.8479789 566.875 402.8125 C573.90271282 394.93505273 575.28654151 384.02766299 577.25 374 C577.52001101 372.66519798 577.79083942 371.33056103 578.0625 369.99609375 C579.42819555 364.0445793 579.42819555 364.0445793 580 358 C567.26510729 357.56365215 551.77697516 357.22302484 542 367 Z " fill="#1136FE" transform="translate(51,1339)"/>
<path d="M0 0 C178.86 0 357.72 0 542 0 C542 88.11 542 176.22 542 267 C541.67 267 541.34 267 541 267 C541 179.22 541 91.44 541 1 C362.8 1 184.6 1 1 1 C1 161.05 1 321.1 1 486 C41.59 486 82.18 486 124 486 C124.33 482.7 124.66 479.4 125 476 C125.42199205 473.58922601 125.88497144 471.18514347 126.39526367 468.79150391 C126.5320755 468.14251633 126.66888733 467.49352875 126.80984497 466.82487488 C127.25748453 464.70765822 127.71264771 462.59213924 128.16796875 460.4765625 C128.48893037 458.96619285 128.8094208 457.455723 129.12947083 455.94515991 C129.97235377 451.97326072 130.82166389 448.00276306 131.67236328 444.03253174 C132.51533483 440.09283829 133.35211085 436.15183047 134.18945312 432.2109375 C136.9306893 419.31888205 139.69227135 406.43119859 142.45768738 393.54431152 C144.94956462 381.93105173 147.41688909 370.31321397 149.84109497 358.68563843 C150.79478225 354.11170083 151.75108652 349.53830998 152.70703125 344.96484375 C152.89984177 344.04212173 153.09265228 343.11939972 153.29130554 342.16871643 C155.20637547 333.00648551 157.13283391 323.84666641 159.0625 314.6875 C159.3070694 313.52652802 159.3070694 313.52652802 159.55657959 312.34210205 C160.37627038 308.45118015 161.19614106 304.56029619 162.01611328 300.66943359 C163.34468636 294.36478046 164.67187324 288.0598356 165.99902344 281.75488281 C166.66218134 278.60443873 167.32560544 275.45405089 167.98925781 272.30371094 C169.5386144 264.94811116 171.08624497 257.59216057 172.62796021 250.23495483 C173.34872734 246.79590265 174.07044771 243.35705081 174.79223633 239.91821289 C175.13287957 238.29396326 175.47306644 236.66961784 175.81274414 235.04516602 C176.28672999 232.77855666 176.76235603 230.51229657 177.23828125 228.24609375 C177.641073 226.32301392 177.641073 226.32301392 178.05200195 224.36108398 C179.3126431 218.56174513 180.66550955 212.78279193 182 207 C211.04 207 240.08 207 270 207 C277 231 277 231 279 241 C283.33668284 239.61072638 285.61335935 237.63053941 288.6875 234.3125 C307.46592465 215.03626733 336.94656212 203.3783782 363.73046875 202.83203125 C365.88278958 202.82015456 368.03514679 202.81378499 370.1875 202.8125 C371.24775391 202.80025391 372.30800781 202.78800781 373.40039062 202.77539062 C391.59005424 202.74213713 406.78833244 207.26498374 420.11328125 220.0234375 C437.11789646 237.76459913 437.77682327 262.8928808 437.30566406 286.05737305 C436.86234105 300.48846058 434.42627298 314.79187859 432 329 C431.84015625 329.95567871 431.6803125 330.91135742 431.515625 331.89599609 C425.61885828 365.83652951 410.42921201 404.50375364 381.7109375 425.484375 C366.8176113 435.76836742 351.18718475 440.37675217 333.125 440.25 C332.03058594 440.25773437 330.93617188 440.26546875 329.80859375 440.2734375 C303.54456881 440.21127413 280.59811351 431.00547415 261.625 412.9375 C259.19310024 410.46156181 257.33775244 408.11391017 255.6875 405.0625 C254.2985139 401.72268235 254.2985139 401.72268235 251 401 C250.89555069 401.6762291 250.79110138 402.35245819 250.68348694 403.04917908 C249.26845822 411.89203682 247.44534851 420.62831267 245.55859375 429.37890625 C245.22735435 430.92394512 244.89630831 432.46902546 244.56544495 434.0141449 C243.87713051 437.22570238 243.18697091 440.43685563 242.49536133 443.64770508 C241.60908299 447.76272984 240.72679872 451.8785986 239.84577847 455.99475193 C239.16509312 459.17341755 238.48269305 462.35171305 237.7997303 465.52989006 C237.47354713 467.0484557 237.14781301 468.56711787 236.82253838 470.08587837 C236.36962962 472.19897767 235.91450222 474.31158679 235.45874023 476.42407227 C235.07140968 478.22510155 235.07140968 478.22510155 234.67625427 480.06251526 C234 483 234 483 233 486 C334.64 486 436.28 486 541 486 C541 471.15 541 456.3 541 441 C541.33 441 541.66 441 542 441 C542 456.18 542 471.36 542 487 C440.03 487 338.06 487 233 487 C232.01 492.94 232.01 492.94 231 499 C229.02 507.91 227.04 516.82 225 526 C188.7 526 152.4 526 115 526 C117.01790317 512.88362939 120.01596006 499.93083975 123 487 C82.41 487 41.82 487 0 487 C0 326.29 0 165.58 0 0 Z " fill="#FEFEFE" transform="translate(51,1339)"/>
<path d="M0 0 C29.04 0 58.08 0 88 0 C91.44544297 22.96961982 91.44544297 22.96961982 92.33447266 30.74414062 C92.49365425 32.09950676 92.49365425 32.09950676 92.65605164 33.48225403 C92.88006217 35.39318872 93.10263243 37.30429279 93.32378006 39.21556091 C93.67410873 42.24306857 94.02854156 45.27007361 94.38388062 48.29699707 C95.13451333 54.6975809 95.87994317 61.09876513 96.625 67.5 C97.49651494 74.98244104 98.37019885 82.46462106 99.24793625 89.94633484 C99.59634249 92.92413502 99.94152787 95.90229689 100.28652954 98.88049316 C100.49897959 100.69573644 100.71156757 102.51096359 100.92431641 104.32617188 C101.06614098 105.5618969 101.06614098 105.5618969 101.21083069 106.82258606 C101.61970656 110.28687439 102.10335363 113.62988435 103 117 C103.66866089 115.36200439 103.66866089 115.36200439 104.35083008 113.69091797 C113.91231344 90.27320157 123.51001138 66.8710037 133.1887207 43.50146484 C139.18169845 29.02361815 145.09967056 14.51580229 151 0 C161.41342925 -0.02312359 171.82685244 -0.04091517 182.24030209 -0.05181217 C187.07516827 -0.05704097 191.91001694 -0.06413854 196.74487305 -0.07543945 C201.4067712 -0.08626847 206.06865246 -0.09227686 210.73056221 -0.09487724 C212.51324288 -0.09673147 214.29592259 -0.10035203 216.07859612 -0.10573006 C218.5666596 -0.11294069 221.05465243 -0.11399093 223.54272461 -0.11352539 C224.28718842 -0.11712067 225.03165222 -0.12071594 225.79867554 -0.12442017 C230.88594784 -0.11405216 230.88594784 -0.11405216 232 1 C232.25031932 2.44317009 232.4410832 3.89673582 232.60705566 5.35202026 C232.71636917 6.2914447 232.82568268 7.23086914 232.93830872 8.19876099 C233.054702 9.23773529 233.17109528 10.27670959 233.29101562 11.34716797 C233.41635178 12.43489502 233.54168793 13.52262207 233.67082214 14.64331055 C233.94339488 17.013977 234.21393235 19.38487811 234.48271179 21.75597763 C234.90762203 25.50429079 235.33770478 29.25197779 235.76916504 32.99954224 C236.60644362 40.2803409 237.43786197 47.56179786 238.26825714 54.84338379 C239.39631833 64.73273876 240.528389 74.6216255 241.66569519 84.50992203 C242.09000109 88.20950025 242.5102603 91.90952369 242.93029785 95.60958862 C243.18968516 97.87109347 243.4492383 100.1325793 243.70898438 102.39404297 C243.82537766 103.42896881 243.94177094 104.46389465 244.06169128 105.53018188 C244.17100479 106.47524597 244.2803183 107.42031006 244.39294434 108.39401245 C244.48659019 109.21587477 244.58023605 110.03773708 244.67671967 110.88450432 C244.96682577 113.18262578 244.96682577 113.18262578 246 116 C254.25562719 96.53925454 262.4362409 77.05366967 270.34063721 57.44732666 C278.08603983 38.23924886 286.04821593 19.12371211 294 0 C308.85 0 323.7 0 339 0 C337.08308742 5.75073773 335.22928125 11.00939884 332.62890625 16.40234375 C332.31091568 17.07295837 331.99292511 17.743573 331.66529846 18.43450928 C330.98703799 19.86359706 330.30650366 21.29160759 329.62384033 22.71859741 C328.16876803 25.76065999 326.72541927 28.80823734 325.28137207 31.85554504 C324.55007096 33.39860217 323.81821949 34.94139858 323.08581543 36.4839325 C320.05683797 42.86588615 317.07666455 49.26940646 314.125 55.6875 C313.42890625 57.19969116 313.42890625 57.19969116 312.71875 58.74243164 C311.71727988 60.91879312 310.71615659 63.09531423 309.71533203 65.27197266 C306.17170129 72.97634945 302.61596332 80.67515503 299.0625 88.375 C298.4778598 89.64203262 298.4778598 89.64203262 297.88140869 90.93466187 C292.60280786 102.37390987 287.312326 113.80746253 281.99707031 125.22973633 C278.73727653 132.24034962 275.49821657 139.26017174 272.26953125 146.28515625 C271.44145024 148.08530669 270.61332518 149.88543688 269.78515625 151.68554688 C268.55478491 154.35989905 267.32527551 157.03462874 266.09863281 159.71069336 C264.95991907 162.19488235 263.81813808 164.67764091 262.67578125 167.16015625 C262.33368118 167.90878433 261.99158112 168.65741241 261.63911438 169.4287262 C260.24675325 172.44826877 258.84852414 175.22721379 257 178 C254.18882089 178.28621686 251.59884571 178.37819403 248.78662109 178.34057617 C247.9377684 178.34101425 247.08891571 178.34145233 246.21434021 178.34190369 C243.40047432 178.33980882 240.58719967 178.31644515 237.7734375 178.29296875 C235.82573777 178.28737527 233.87803382 178.283104 231.93032837 178.28010559 C226.79769285 178.26863727 221.665311 178.23915304 216.53277588 178.20599365 C211.29792716 178.17533553 206.06303756 178.16160937 200.828125 178.14648438 C190.55197173 178.11428521 180.27600694 178.06306492 170 178 C168.52514269 173.12332237 167.42679401 168.28947929 166.59545898 163.26049805 C166.40723572 162.1518766 166.40723572 162.1518766 166.21520996 161.02085876 C165.94557103 159.42957889 165.6777402 157.83799176 165.41155815 156.24612999 C164.99049235 153.72822327 164.56458531 151.21117669 164.13746643 148.69429016 C163.23307726 143.35943189 162.33508329 138.02350684 161.4375 132.6875 C160.39352745 126.4854259 159.34694806 120.28380605 158.29536629 114.08301735 C157.87555637 111.60060699 157.45970613 109.1175543 157.04405212 106.63444519 C156.787929 105.12044297 156.53163646 103.60646941 156.27514648 102.0925293 C156.16032425 101.40006104 156.04550201 100.70759277 155.92720032 99.99414062 C155.32195434 96.38789814 155.32195434 96.38789814 154 93 C144.3858531 112.86202373 135.05140247 132.84159664 125.9453125 152.94140625 C125.42989647 154.07834427 125.42989647 154.07834427 124.90406799 155.23825073 C123.20314694 158.99067752 121.50479805 162.74422637 119.8112793 166.5 C119.19326784 167.86591765 118.57518856 169.23180461 117.95703125 170.59765625 C117.67219879 171.23175919 117.38736633 171.86586212 117.09390259 172.5191803 C115.113364 176.886636 115.113364 176.886636 114 178 C111.2611158 178.09516211 108.54752059 178.12554594 105.80834961 178.11352539 C104.94988937 178.11367142 104.09142914 178.11381744 103.20695496 178.1139679 C100.35539262 178.11326847 97.50389475 178.1054747 94.65234375 178.09765625 C92.68079158 178.09579218 90.70923895 178.09436822 88.73768616 178.09336853 C83.53773733 178.08954251 78.33781625 178.07971152 73.13787842 178.06866455 C67.83606339 178.05845222 62.5342439 178.05387129 57.23242188 178.04882812 C46.82160237 178.03808933 36.41080349 178.02101191 26 178 C20.65923677 143.20386919 15.32824577 108.40625209 10.0098877 73.60668945 C9.37870716 69.47690636 8.74718011 65.34717668 8.1151123 61.2175293 C6.73739709 52.21588066 5.36332787 43.21371117 4.00021362 34.20983887 C3.6274489 31.75228855 3.25289916 29.29500827 2.87649536 26.8380127 C2.3698013 23.52814383 1.86947757 20.21737875 1.37109375 16.90625 C1.22819916 15.98233459 1.08530457 15.05841919 0.93807983 14.10650635 C0.81212433 13.25989441 0.68616882 12.41328247 0.55639648 11.54101562 C0.44778793 10.82546509 0.33917938 10.10991455 0.22727966 9.37268066 C-0.07071473 6.26177524 0 3.12514531 0 0 Z " fill="#000000" transform="translate(1142,1608)"/>
<path d="M0 0 C28.38 0 56.76 0 86 0 C80.19903835 29.00480827 80.19903835 29.00480827 77.25738525 42.87522888 C77.04467232 43.87885405 76.83195938 44.88247921 76.6128006 45.91651726 C76.39510765 46.94309 76.1774147 47.96966274 75.953125 49.02734375 C75.49179766 51.20641668 75.03051525 53.38549911 74.5692749 55.56459045 C73.61571025 60.06776937 72.66100874 64.57070545 71.70556641 69.07348633 C70.4798877 74.8507283 69.25811703 80.62878959 68.03725052 86.40705013 C67.09206632 90.87766628 66.14439866 95.34775323 65.19600677 99.8176899 C64.74378204 101.95102872 64.292447 104.08455635 63.84201813 106.21827507 C63.21791755 109.17333793 62.59037119 112.12764817 61.96191406 115.08178711 C61.77699905 115.96104355 61.59208405 116.84029999 61.40156555 117.74620056 C60.1141766 123.7716468 60.1141766 123.7716468 59 126 C62.14662613 124.32835487 64.63129408 122.43921709 67.1875 120 C85.78643967 103.50263543 108.97742729 95.63413573 133.60742188 96.80908203 C146.79409153 97.86132445 159.22220329 102.65949828 168.5 112.3125 C176.52504109 122.07268511 177.99434054 133.75271049 177 146 C176.51402181 149.60438861 175.85569866 153.16903622 175.1796875 156.7421875 C174.96773743 157.87313843 174.75578735 159.00408936 174.53741455 160.16931152 C170.57519428 180.84208101 165.97879985 201.39338447 161.51660156 221.96240234 C160.48432206 226.72601064 159.45632579 231.49053903 158.42840195 236.25508881 C157.43641452 240.85174725 156.44262326 245.44801406 155.44818878 250.04414368 C154.97415274 252.23537668 154.50049154 254.4266908 154.02721405 256.61808777 C153.37110199 259.65397133 152.71275453 262.68936105 152.05371094 265.72460938 C151.76231232 267.07546631 151.76231232 267.07546631 151.46502686 268.45361328 C151.2857666 269.27696167 151.10650635 270.10031006 150.92181396 270.9486084 C150.76699429 271.66295799 150.61217461 272.37730759 150.45266342 273.11330414 C150 275 150 275 149 278 C120.95 278 92.9 278 64 278 C65.22171294 270.66972237 66.46618601 263.425733 68.01538086 256.17089844 C68.20592545 255.2682576 68.39647003 254.36561676 68.5927887 253.43562317 C69.00194566 251.49906429 69.41227161 249.56275208 69.82368279 247.62667084 C70.47810776 244.54695473 71.12937925 241.46658562 71.77992249 238.38604736 C72.92906139 232.94699815 74.08092431 227.50853015 75.23370361 222.07025146 C77.07505621 213.38342984 78.91406378 204.69611568 80.74960518 196.00806427 C81.38551622 193.00143664 82.02371455 189.99530109 82.66209412 186.98919678 C89.12770928 164.17166484 89.12770928 164.17166484 87.6875 141.5 C86.08207479 138.78077469 86.08207479 138.78077469 83 137 C76.11885523 135.94888375 70.68751429 137.09785204 65 141 C63.72382812 141.84498047 63.72382812 141.84498047 62.421875 142.70703125 C57.11065134 146.76809846 54.50326488 150.20896334 53.03979492 156.76269531 C52.80409806 157.78989622 52.80409806 157.78989622 52.56363964 158.83784866 C52.02351308 161.22142483 51.51108125 163.61003482 51 166 C50.59215022 167.85829716 50.1838114 169.71648703 49.77505493 171.57458496 C48.35923262 178.05933603 46.98604917 184.55289962 45.61328125 191.046875 C45.10599891 193.43586887 44.59844095 195.82480423 44.09062195 198.21368408 C42.76517111 204.45199086 41.44301175 210.69099032 40.1217041 216.93017578 C37.99763379 226.95678735 35.86813796 236.98224853 33.73930931 247.00785065 C32.99780064 250.50201736 32.25748857 253.99643584 31.51741028 257.49090576 C31.06541274 259.62252078 30.61340234 261.75413307 30.16137695 263.88574219 C29.95618942 264.85610413 29.75100189 265.82646606 29.53959656 266.82623291 C29.35047699 267.71733765 29.16135742 268.60844238 28.96650696 269.52655029 C28.7212677 270.6844916 28.7212677 270.6844916 28.4710741 271.86582565 C28.01785651 273.91910212 27.50997984 275.96008064 27 278 C-1.38 278 -29.76 278 -59 278 C-51.19808325 240.18172689 -43.31602134 202.38314385 -35.31647873 164.60623169 C-34.48466689 160.67758166 -33.65327639 156.74884271 -32.822052 152.82006836 C-29.15524921 135.48940687 -25.48484227 118.15951102 -21.81180573 100.83016968 C-21.0133498 97.06298552 -20.21500902 93.29577699 -19.41668701 89.52856445 C-16.53086084 75.9114976 -13.64249462 62.29497327 -10.75 48.67932129 C-9.87840585 44.57651576 -9.00750818 40.47356339 -8.13720703 36.3704834 C-7.13093766 31.62685361 -6.12295089 26.88359218 -5.1135273 22.14063263 C-4.74788624 20.42133229 -4.38282456 18.70190862 -4.01838493 16.98235321 C-3.52615853 14.66041472 -3.03180476 12.33893955 -2.53686523 10.01757812 C-2.32291233 9.004713 -2.32291233 9.004713 -2.10463715 7.97138596 C-1.52208261 5.24880422 -0.88163719 2.64491156 0 0 Z " fill="#000000" transform="translate(944,1508)"/>
<path d="M0 0 C33.99 0 67.98 0 103 0 C106.69323218 7.38646437 110.23501309 14.61177343 113.390625 22.20703125 C113.777379 23.12802612 114.164133 24.049021 114.56260681 24.9979248 C115.37822046 26.94113659 116.19207706 28.88508671 117.00424194 30.82974243 C119.10022378 35.84821744 121.20899748 40.86131541 123.31640625 45.875 C123.72510452 46.84826736 124.1338028 47.82153473 124.55488586 48.82429504 C128.940428 59.25852333 133.43692113 69.64216288 138 80 C141.62187537 76.61618216 144.45418263 72.85228323 147.375 68.875 C151.84018017 62.85478196 156.38099613 56.90298228 161 51 C165.89274111 44.74066107 170.70155338 38.42759446 175.44775391 32.05664062 C179.91933581 26.07070681 184.50041563 20.17271954 189.10546875 14.2890625 C189.65589844 13.58523438 190.20632812 12.88140625 190.7734375 12.15625 C191.25216309 11.54587891 191.73088867 10.93550781 192.22412109 10.30664062 C193.99783422 8.11913571 193.99783422 8.11913571 195.12411499 5.98718262 C197.16439324 2.649447 198.62684712 0.3833238 202.50344849 -0.69885254 C205.61284515 -0.92651102 208.62667407 -0.89985688 211.7421875 -0.78125 C212.86569611 -0.76993042 213.98920471 -0.75861084 215.14675903 -0.74694824 C218.72459607 -0.70227156 222.29838076 -0.60191442 225.875 -0.5 C228.3046295 -0.45986224 230.73432201 -0.423362 233.1640625 -0.390625 C239.11075053 -0.30256506 245.0550858 -0.16881294 251 0 C249.30569405 2.91663109 247.62252787 5.62641458 245.3984375 8.1640625 C244.6703186 9.00239624 244.6703186 9.00239624 243.92749023 9.85766602 C243.41516846 10.44088623 242.90284668 11.02410645 242.375 11.625 C241.2893809 12.87544875 240.20475394 14.1267595 239.12109375 15.37890625 C238.32227783 16.30147217 238.32227783 16.30147217 237.50732422 17.24267578 C235.44283344 19.64957643 233.43637121 22.10096059 231.4375 24.5625 C228.17221433 28.58358416 224.8543221 32.55336443 221.5 36.5 C216.59446792 42.27536149 211.77971173 48.11992298 207 54 C201.76081592 60.44532718 196.46460425 66.83422912 191.08642578 73.16357422 C188.18780161 76.58020732 185.32859421 80.02486997 182.5 83.5 C179.21176205 87.53983519 175.87266822 91.53081733 172.5 95.5 C167.59519561 101.27514993 162.73841497 107.08685299 158 113 C157.401875 113.63808594 156.80375 114.27617188 156.1875 114.93359375 C154.46582361 117.92953721 155.2472184 119.66713816 156 123 C156.82781282 125.2215705 157.72713284 127.41712293 158.67578125 129.58984375 C158.95225998 130.22884613 159.22873871 130.86784851 159.51359558 131.5262146 C160.1192667 132.92406757 160.72797994 134.32060543 161.33935547 135.7159729 C162.69549079 138.81180428 164.03630151 141.91420887 165.37850952 145.01609802 C166.10709074 146.69934308 166.83646058 148.38224698 167.56655884 150.06483459 C171.93007112 160.12509245 176.21333605 170.21932211 180.5 180.3125 C182.18312962 184.27363488 183.86679979 188.23453969 185.55078125 192.1953125 C185.98185181 193.20932129 186.41292236 194.22333008 186.85705566 195.26806641 C190.07758698 202.84018223 193.30969961 210.40731157 196.54548264 217.97291756 C198.14506442 221.71377143 199.74307226 225.455298 201.34108543 229.19682217 C202.6385386 232.23417275 203.93746498 235.27088116 205.23828125 238.30679321 C206.68627295 241.68646361 208.13062119 245.06766959 209.57421875 248.44921875 C210.00864792 249.46051849 210.44307709 250.47181824 210.89067078 251.51376343 C211.28728409 252.44467804 211.6838974 253.37559265 212.0925293 254.3347168 C212.43857712 255.14337692 212.78462494 255.95203705 213.14115906 256.78520203 C214 259 214 259 215 263 C181.01 263 147.02 263 112 263 C107.9406183 254.8812366 104.11066047 246.85059107 100.59375 238.5078125 C100.10596069 237.35940887 99.61817139 236.21100525 99.11560059 235.02780151 C97.57347902 231.39504355 96.03660323 227.76009507 94.5 224.125 C93.47040931 221.6964631 92.44046412 219.26807647 91.41015625 216.83984375 C89.45678035 212.23535663 87.50508526 207.63016338 85.5546875 203.02441406 C82.72288698 196.34108353 79.87099944 189.66658419 77 183 C74.59692061 185.34019328 72.38738202 187.65654781 70.40625 190.36328125 C69.93960937 190.99492188 69.47296875 191.6265625 68.9921875 192.27734375 C68.49976563 192.94894531 68.00734375 193.62054687 67.5 194.3125 C63.43670547 199.79694681 59.29448101 205.19467837 55 210.5 C50.34047904 216.26451263 45.85709487 222.13972343 41.43188477 228.08544922 C36.8607269 234.21667061 32.15130124 240.23073447 27.40283203 246.22509766 C25.89777672 248.12933575 24.39934335 250.03864208 22.90234375 251.94921875 C22.39582275 252.59552246 21.88930176 253.24182617 21.36743164 253.90771484 C20.39103734 255.15388339 19.41495065 256.40029303 18.43920898 257.64697266 C15.11148443 261.88851557 15.11148443 261.88851557 14 263 C12.43452952 263.09326716 10.86487228 263.11745582 9.29663086 263.11352539 C8.29566879 263.11344986 7.29470673 263.11337433 6.26341248 263.11329651 C5.1748848 263.10813522 4.08635712 263.10297394 2.96484375 263.09765625 C1.85645645 263.0962413 0.74806915 263.09482635 -0.39390564 263.09336853 C-3.95013069 263.08775033 -7.50629383 263.07519475 -11.0625 263.0625 C-13.46679597 263.05748734 -15.87109292 263.05292403 -18.27539062 263.04882812 C-24.18361504 263.03777499 -30.0918031 263.02101917 -36 263 C-34.30271821 258.37829143 -31.81976311 255.19219715 -28.5625 251.5625 C-24.37310026 246.79185342 -20.32215991 241.95961423 -16.4375 236.9375 C-12.45922083 231.80605506 -8.34638575 226.8226332 -4.12255859 221.89208984 C-0.82875381 218.02809111 2.32606266 214.07430847 5.4375 210.0625 C9.71292845 204.55423224 14.17028797 199.23686339 18.73242188 193.96459961 C22.1879304 189.96593817 25.53405975 185.89976716 28.8125 181.75390625 C31.66072559 178.16819368 34.54834652 174.61526625 37.4375 171.0625 C37.99824219 170.37236816 38.55898437 169.68223633 39.13671875 168.97119141 C41.62517262 165.91065418 44.1169542 162.85310431 46.625 159.80859375 C48.10662123 158.00912472 49.58243967 156.20485257 51.05078125 154.39453125 C52.32070544 152.8344841 53.60906932 151.28921239 54.91796875 149.76171875 C55.48128906 149.07722656 56.04460937 148.39273437 56.625 147.6875 C57.11226562 147.11386719 57.59953125 146.54023437 58.1015625 145.94921875 C59.45037194 143.02288871 58.70225816 141.12846728 58 138 C56.98489677 135.31223536 55.92814898 132.69985399 54.78125 130.0703125 C54.45181396 129.30032928 54.12237793 128.53034607 53.78295898 127.73703003 C52.69467139 125.19704949 51.59727724 122.66110833 50.5 120.125 C49.72911945 118.32972675 48.95894912 116.53414839 48.18945312 114.73828125 C46.5899917 111.00694852 44.98747916 107.27694858 43.3828125 103.54785156 C40.07832281 95.86223733 36.8110036 88.16089352 33.54364014 80.45944214 C31.79371268 76.33556344 30.04135754 72.21271685 28.2890625 68.08984375 C27.94042145 67.26942093 27.5917804 66.44899811 27.23257446 65.60371399 C25.00918924 60.372255 22.78362156 55.14172896 20.55670166 49.91177368 C19.02924134 46.3242904 17.5025107 42.73649679 15.97583008 39.14868164 C15.25760446 37.46135319 14.53903331 35.77417176 13.82006836 34.0871582 C10.17809159 25.54121939 6.55908091 16.986439 3.0078125 8.40234375 C2.70422821 7.6713295 2.40064392 6.94031525 2.08786011 6.18714905 C0 1.11863566 0 1.11863566 0 0 Z " fill="#000000" transform="translate(1911,1523)"/>
<path d="M0 0 C9.31438666 9.15471146 14.33943013 20.9410381 14.875 34.0625 C14.9265625 35.12984375 14.978125 36.1971875 15.03125 37.296875 C15.22538213 45.22393704 14.67447117 52.90927051 13.63525391 60.76831055 C13.50307276 61.77002383 13.37089161 62.77173712 13.23470497 63.80380535 C11.80220186 74.21500423 9.69891747 84.44414746 7.4609375 94.70703125 C7.04090938 96.66461369 6.62162384 98.6223556 6.20303345 100.58024597 C5.33624322 104.62560435 4.46361556 108.66963659 3.5859375 112.71264648 C2.46009561 117.89913 1.34498687 123.08784787 0.23357201 128.27744007 C-0.83285797 133.25474964 -1.9045266 138.23092667 -2.9765625 143.20703125 C-3.17973713 144.15234018 -3.38291176 145.09764912 -3.59224319 146.07160378 C-4.16355961 148.72521662 -4.73861554 151.37798883 -5.31494141 154.03051758 C-5.48429703 154.81940872 -5.65365265 155.60829987 -5.82814026 156.4210968 C-7.01019787 161.83289573 -7.01019787 161.83289573 -8.125 164.0625 C-30.565 164.0625 -53.005 164.0625 -76.125 164.0625 C-78.435 155.8125 -80.745 147.5625 -83.125 139.0625 C-86.59586396 140.79793198 -87.64768973 141.43573718 -90 144.125 C-104.87593664 159.31744593 -128.02819226 166.88913522 -148.90332031 167.48461914 C-164.45574486 167.5767405 -178.86022535 164.2612832 -190.5625 153.25 C-202.98472093 139.7510115 -203.88430303 125.22026153 -203.30419922 107.70458984 C-202.95852202 102.60797049 -201.63621568 98.47472942 -199.125 94.0625 C-198.70089844 93.29421875 -198.27679688 92.5259375 -197.83984375 91.734375 C-188.7683667 76.87635687 -172.769681 66.964802 -156.07421875 62.6484375 C-154.32279151 62.23416741 -152.56876653 61.83074924 -150.8125 61.4375 C-149.42285034 61.11894043 -149.42285034 61.11894043 -148.00512695 60.79394531 C-137.87615033 58.50420907 -128.01454822 56.89345079 -117.64135742 56.40332031 C-115.02702059 56.2763186 -112.50912458 56.15011493 -109.95214844 55.56689453 C-106.07588918 54.87532703 -102.25487857 54.82765739 -98.32421875 54.74609375 C-97.48784378 54.72531265 -96.65146881 54.70453156 -95.78974915 54.68312073 C-93.13074579 54.61798966 -90.47164772 54.5589105 -87.8125 54.5 C-86.00454769 54.45678008 -84.19660478 54.4131647 -82.38867188 54.36914062 C-77.96754378 54.26234584 -73.54632088 54.16097675 -69.125 54.0625 C-68.79642952 51.53942656 -68.47144443 49.01597425 -68.1484375 46.4921875 C-68.05618896 45.78666748 -67.96394043 45.08114746 -67.86889648 44.35424805 C-66.57358003 34.17341238 -65.52164896 24.18381254 -71.125 15.0625 C-77.11410601 10.12148755 -84.71786978 10.5507008 -92.125 11.0625 C-98.17411583 12.21255645 -102.20946567 14.16808208 -106.125 19.0625 C-107.47412448 21.17861944 -108.77309298 23.30555635 -110.01171875 25.48828125 C-110.37910156 26.00777344 -110.74648438 26.52726562 -111.125 27.0625 C-111.785 27.0625 -112.445 27.0625 -113.125 27.0625 C-114.115 30.6925 -115.105 34.3225 -116.125 38.0625 C-135.925 38.0625 -155.725 38.0625 -176.125 38.0625 C-175.135 32.7825 -174.145 27.5025 -173.125 22.0625 C-172.79048828 19.24525391 -172.79048828 19.24525391 -172.44921875 16.37109375 C-170.94722848 3.80154544 -170.94722848 3.80154544 -166.38671875 -0.55078125 C-163.32858586 -2.14157472 -160.50060001 -3.31830934 -157.21679688 -4.30615234 C-155.03179451 -4.96563135 -152.90656162 -5.72924309 -150.765625 -6.51953125 C-138.28629636 -11.0259932 -125.3736246 -14.79537719 -112.125 -15.9375 C-111.465 -16.2675 -110.805 -16.5975 -110.125 -16.9375 C-75.57593199 -21.52769823 -28.4187223 -23.69800431 0 0 Z M-112.125 84.0625 C-112.2177833 85.44410115 -112.24247043 86.83038038 -112.23852539 88.21508789 C-112.23844986 89.09592545 -112.23837433 89.976763 -112.23829651 90.8842926 C-112.23313522 91.84157761 -112.22797394 92.79886261 -112.22265625 93.78515625 C-112.2212413 94.76036728 -112.21982635 95.73557831 -112.21836853 96.74034119 C-112.21275133 99.86859143 -112.20019593 102.99677123 -112.1875 106.125 C-112.18248722 108.24023334 -112.17792393 110.35546781 -112.17382812 112.47070312 C-112.16277631 117.66799296 -112.14602146 122.86524145 -112.125 128.0625 C-101.82489118 128.39866839 -95.08572295 126.9104789 -87.25 119.875 C-80.22228718 111.99755273 -78.83845849 101.09016299 -76.875 91.0625 C-76.60498899 89.72769798 -76.33416058 88.39306103 -76.0625 87.05859375 C-74.69680445 81.1070793 -74.69680445 81.1070793 -74.125 75.0625 C-86.85989271 74.62615215 -102.34802484 74.28552484 -112.125 84.0625 Z " fill="#000000" transform="translate(705.125,1621.9375)"/>
<path d="M0 0 C9.31438666 9.15471146 14.33943013 20.9410381 14.875 34.0625 C14.9265625 35.12984375 14.978125 36.1971875 15.03125 37.296875 C15.22538213 45.22393704 14.67447117 52.90927051 13.63525391 60.76831055 C13.50307276 61.77002383 13.37089161 62.77173712 13.23470497 63.80380535 C11.80220186 74.21500423 9.69891747 84.44414746 7.4609375 94.70703125 C7.04090938 96.66461369 6.62162384 98.6223556 6.20303345 100.58024597 C5.33624322 104.62560435 4.46361556 108.66963659 3.5859375 112.71264648 C2.46009561 117.89913 1.34498687 123.08784787 0.23357201 128.27744007 C-0.83285797 133.25474964 -1.9045266 138.23092667 -2.9765625 143.20703125 C-3.17973713 144.15234018 -3.38291176 145.09764912 -3.59224319 146.07160378 C-4.16355961 148.72521662 -4.73861554 151.37798883 -5.31494141 154.03051758 C-5.48429703 154.81940872 -5.65365265 155.60829987 -5.82814026 156.4210968 C-7.01019787 161.83289573 -7.01019787 161.83289573 -8.125 164.0625 C-30.565 164.0625 -53.005 164.0625 -76.125 164.0625 C-78.435 155.8125 -80.745 147.5625 -83.125 139.0625 C-86.59586396 140.79793198 -87.64768973 141.43573718 -90 144.125 C-104.90507155 159.41225287 -128.58039164 168.01186274 -149.625 168.3125 C-165.91554784 168.13956425 -180.03569597 163.86663355 -191.93359375 152.484375 C-202.20944341 141.12782101 -205.0157641 127.10973292 -204.30419922 112.15625 C-203.45696824 102.25726786 -200.71245043 92.65431507 -194.125 85.0625 C-193.48820312 84.31742188 -192.85140625 83.57234375 -192.1953125 82.8046875 C-171.15908498 60.07323286 -136.36593267 56.3333486 -107.125 55.0625 C-94.46229156 54.59019493 -81.79385389 54.30735686 -69.125 54.0625 C-68.79642952 51.53942656 -68.47144443 49.01597425 -68.1484375 46.4921875 C-68.05618896 45.78666748 -67.96394043 45.08114746 -67.86889648 44.35424805 C-66.57358003 34.17341238 -65.52164896 24.18381254 -71.125 15.0625 C-77.11410601 10.12148755 -84.71786978 10.5507008 -92.125 11.0625 C-99.95702672 12.55152304 -104.20627799 16.0994743 -108.6875 22.625 C-111.87313723 28.109762 -111.87313723 28.109762 -115.125 39.0625 C-135.585 39.0625 -156.045 39.0625 -177.125 39.0625 C-171.33257154 1.7894821 -171.33257154 1.7894821 -165.2890625 -3.03125 C-161.58881985 -4.98755513 -157.73296552 -5.85308318 -153.61767578 -6.49804688 C-151.04196387 -6.95213908 -148.71647083 -7.662303 -146.24609375 -8.515625 C-105.15912579 -22.6539551 -35.95089336 -29.97898417 0 0 Z M-117.0625 87.8125 C-123.20058474 95.63265604 -124.56970785 102.94076123 -124.55859375 112.765625 C-123.98421101 117.13300364 -122.61550112 120.46580541 -119.58984375 123.70703125 C-113.34652018 128.48133751 -108.94309761 128.88297586 -101.125 128.0625 C-93.68624654 125.72280745 -86.74195995 121.05246601 -83.05908203 114.0300293 C-80.01249253 106.56933792 -78.41993163 98.95268656 -76.875 91.0625 C-76.60498899 89.72769798 -76.33416058 88.39306103 -76.0625 87.05859375 C-74.69680445 81.1070793 -74.69680445 81.1070793 -74.125 75.0625 C-89.81434737 74.52492084 -105.53267399 75.66938537 -117.0625 87.8125 Z " fill="#000000" transform="translate(1669.125,1621.9375)"/>
<path d="M0 0 C29.04 0 58.08 0 88 0 C89.20238891 7.81552792 90.3545081 15.51223595 91.12915039 23.36083984 C91.22537186 24.30734406 91.32159332 25.25384827 91.42073059 26.22903442 C91.73280995 29.30603071 92.04022061 32.38347411 92.34765625 35.4609375 C92.56626914 37.62280617 92.78522347 39.78464033 93.00450134 41.94644165 C93.57742618 47.60190624 94.14658192 53.25774309 94.71466064 58.91369629 C95.62632946 67.98559287 96.54312056 77.05697162 97.46117973 86.12822342 C97.78000297 89.28491453 98.09679999 92.44180413 98.41334534 95.59872437 C98.60891895 97.53766468 98.80454887 99.47659931 99.00024414 101.41552734 C99.08701416 102.2863092 99.17378418 103.15709106 99.26318359 104.05426025 C99.73626608 108.72304154 100.30015483 113.35963572 101 118 C101.30067383 117.41847168 101.60134766 116.83694336 101.91113281 116.23779297 C107.9204599 104.63020765 114.00774551 93.07406451 120.29272461 81.61328125 C124.3422361 74.22332936 128.33731106 66.80516039 132.3125 59.375 C132.62492645 58.79130646 132.93735291 58.20761292 133.25924683 57.60623169 C136.50358695 51.54477034 139.74370898 45.48106729 142.97987366 39.41523743 C155.06682045 16.7633818 155.06682045 16.7633818 160.375 7.3125 C160.73835449 6.66506836 161.10170898 6.01763672 161.47607422 5.35058594 C163.86697204 1.13302796 163.86697204 1.13302796 165 0 C166.41225046 -0.0928726 167.82908934 -0.11746772 169.24438477 -0.11352539 C170.14524307 -0.11344986 171.04610138 -0.11337433 171.97425842 -0.11329651 C172.95341721 -0.10813522 173.93257599 -0.10297394 174.94140625 -0.09765625 C175.93881332 -0.0962413 176.9362204 -0.09482635 177.96385193 -0.09336853 C181.16343124 -0.08775114 184.36294169 -0.07519571 187.5625 -0.0625 C189.72591045 -0.05748724 191.88932199 -0.05292395 194.05273438 -0.04882812 C199.36851325 -0.03777607 204.68425171 -0.02102104 210 0 C206.22723366 7.70356744 202.26448943 15.24579606 198 22.6875 C196.85238684 24.70415529 195.70526865 26.72109232 194.55859375 28.73828125 C193.97190918 29.76904785 193.38522461 30.79981445 192.78076172 31.86181641 C189.85324885 37.02088556 186.95760039 42.19769295 184.0625 47.375 C183.19141602 48.93190552 183.19141602 48.93190552 182.30273438 50.52026367 C181.12371242 52.62768399 179.94483888 54.73518735 178.76611328 56.84277344 C175.84601863 62.06293711 172.92286434 67.28138679 170 72.5 C168.83331846 74.58332501 167.6666518 76.66665834 166.5 78.75 C159.5 91.25 152.5 103.75 145.5 116.25 C144.92241943 117.28141113 144.34483887 118.31282227 143.74975586 119.37548828 C142.58396248 121.45722732 141.41810968 123.53893309 140.25219727 125.62060547 C136.73232723 131.90535038 133.21473356 138.19136245 129.69873047 144.47827148 C127.94854165 147.60527227 126.19517638 150.73047543 124.44140625 153.85546875 C122.16483442 157.91320261 119.90337928 161.97883175 117.65234375 166.05078125 C108.15505814 183.16138388 98.20128625 199.48064461 85 214 C84.34902344 214.73347656 83.69804688 215.46695312 83.02734375 216.22265625 C60.02265374 240.79029759 27.03328216 246.79102339 -5.125 247.84765625 C-17.74571978 248.178894 -30.37644289 248.0812729 -43 248 C-42.37879271 241.57438707 -41.36523054 235.36927151 -40 229.0625 C-39.82210938 228.21365234 -39.64421875 227.36480469 -39.4609375 226.49023438 C-38.13455704 220.26911408 -38.13455704 220.26911408 -37 218 C-35.61047119 217.97812622 -35.61047119 217.97812622 -34.19287109 217.95581055 C-30.68484685 217.89397108 -27.17750817 217.81968756 -23.66992188 217.73754883 C-22.1651365 217.7047317 -20.66024075 217.67657264 -19.15527344 217.65356445 C-7.08753705 217.46425083 5.23796733 217.10718406 16 211 C23.53472426 203.12278828 24.24565354 195.16013682 24.14828491 184.64663696 C23.88177043 178.09248698 22.99673862 171.6292461 22.11328125 165.13671875 C21.89439103 163.48213583 21.67601607 161.82748468 21.45808411 160.17277527 C20.65486713 154.11297109 19.82822657 148.05642938 19 142 C18.83113029 140.76338875 18.66226059 139.5267775 18.48827362 138.25269318 C15.19571318 114.15510975 11.85791385 90.06377415 8.51623535 65.97296143 C7.31153785 57.28784228 6.10802056 48.60256342 4.90827447 39.91675872 C4.29590422 35.48435725 3.6810453 31.05231064 3.06424844 26.6205231 C2.59561626 23.24836959 2.13048118 19.87573539 1.66479492 16.50317383 C1.49498611 15.28842377 1.32517731 14.07367371 1.15022278 12.82211304 C0.99757965 11.71182236 0.84493652 10.60153168 0.68766785 9.45759583 C0.55404941 8.49427747 0.42043097 7.53095911 0.28276348 6.53844929 C0 4 0 4 0 0 Z " fill="#000000" transform="translate(1706,1608)"/>
<path d="M0 0 C2.0740641 0.06026807 4.14829664 0.1150078 6.22265625 0.1640625 C11.27763197 0.29556954 16.32444667 0.50214348 21.375 0.75 C18.82785308 14.461856 16.1451225 28.13368291 13.125 41.75 C12.86702637 42.91829346 12.60905273 44.08658691 12.34326172 45.2902832 C10.50362984 53.49274033 10.50362984 53.49274033 9.375 55.75 C19.935 55.75 30.495 55.75 41.375 55.75 C40.25 65.875 40.25 65.875 39.40234375 70.00390625 C39.24241943 70.7935376 39.08249512 71.58316895 38.91772461 72.39672852 C38.71800049 73.35893311 38.51827637 74.3211377 38.3125 75.3125 C37.673125 78.426875 37.03375 81.54125 36.375 84.75 C25.485 84.75 14.595 84.75 3.375 84.75 C2.715 88.71 2.055 92.67 1.375 96.75 C0.84058965 99.47020808 0.28759914 102.18687195 -0.2890625 104.8984375 C-0.4421991 105.62218567 -0.59533569 106.34593384 -0.75311279 107.09161377 C-1.08042175 108.63694064 -1.40889241 110.18202186 -1.73846436 111.72686768 C-2.26253487 114.18376478 -2.78326706 116.64135006 -3.30322266 119.09912109 C-4.59426006 125.19844666 -5.89083601 131.29659206 -7.18725586 137.39477539 C-8.28659629 142.56698787 -9.38377893 147.73964934 -10.47821045 152.91290283 C-10.98678994 155.31266751 -11.49844324 157.71176258 -12.01025391 160.11083984 C-15.54279831 175.79518531 -15.54279831 175.79518531 -17 191.75 C-17.02835938 192.801875 -17.05671875 193.85375 -17.0859375 194.9375 C-16.50332203 198.49244185 -15.47451514 199.60175202 -12.625 201.75 C-5.50224733 204.41283387 2.86414567 204.30264504 10.375 204.75 C9.76127074 211.62800037 8.47603248 218.1164323 6.8125 224.8125 C6.46155273 226.25399414 6.46155273 226.25399414 6.10351562 227.72460938 C5.53232057 230.06767482 4.95607577 232.40936918 4.375 234.75 C-68.28747904 242.88503841 -68.28747904 242.88503841 -88 228.9375 C-89.23567027 227.90692023 -90.44572538 226.84466299 -91.625 225.75 C-92.17929687 225.23695313 -92.73359375 224.72390625 -93.3046875 224.1953125 C-101.73364312 215.43087606 -102.9204875 203.2064332 -102.76998901 191.59519958 C-102.24399987 177.64563767 -99.43720873 164.09751649 -96.4921875 150.49609375 C-96.09080545 148.61481392 -95.69011245 146.73338696 -95.29006958 144.8518219 C-94.24805701 139.95971136 -93.19685484 135.06962249 -92.14355469 130.17993164 C-91.0652743 125.16609148 -89.99593371 120.15034567 -88.92578125 115.13476562 C-86.83413708 105.33798098 -84.73192954 95.54350871 -82.625 85.75 C-92.855 85.42 -103.085 85.09 -113.625 84.75 C-112.5 73.5 -112.5 73.5 -111.65234375 69.6171875 C-111.47509766 68.7921875 -111.29785156 67.9671875 -111.11523438 67.1171875 C-110.84163086 65.88355469 -110.84163086 65.88355469 -110.5625 64.625 C-110.37623047 63.76390625 -110.18996094 62.9028125 -109.99804688 62.015625 C-109.54529666 59.92600862 -109.08586838 57.83784092 -108.625 55.75 C-107.63657104 55.47119995 -107.63657104 55.47119995 -106.62817383 55.18676758 C-85.49743949 49.19975693 -65.54211358 43.46421732 -48.625 28.75 C-47.84253906 28.08871094 -47.06007813 27.42742187 -46.25390625 26.74609375 C-42.68619577 23.67172603 -39.3086901 20.52957012 -36.1875 17 C-35.64375732 16.38801758 -35.10001465 15.77603516 -34.53979492 15.14550781 C-32.5184387 12.73960193 -32.5184387 12.73960193 -30.88500977 9.73632812 C-23.14747884 -2.25214184 -13.15906467 -0.6651697 0 0 Z " fill="#000000" transform="translate(855.625,1552.25)"/>
<path d="M0 0 C1.21429688 -0.02578125 2.42859375 -0.0515625 3.6796875 -0.078125 C7.41240498 0.2773719 9.1983077 0.94822421 12.125 3.25 C13.453125 5.1171875 13.453125 5.1171875 14.375 7.125 C14.68953125 7.78242187 15.0040625 8.43984375 15.328125 9.1171875 C25.62898592 36.68713879 11.67085299 82.13955524 0.21484375 107.5859375 C-4.28260654 117.15886316 -9.20459954 127.09245309 -18.875 132.25 C-24.74540537 134.07662828 -31.61499196 134.53671144 -37.37890625 132.26171875 C-39.79162941 130.77212445 -41.7869889 129.16881683 -43.875 127.25 C-44.66777344 126.53457031 -45.46054687 125.81914063 -46.27734375 125.08203125 C-49.35996087 121.85187006 -51.86040956 119.13699556 -51.89611816 114.51876831 C-51.70674683 113.54046051 -51.51737549 112.56215271 -51.32226562 111.55419922 C-51.10828125 110.40924988 -50.89429688 109.26430054 -50.67382812 108.08465576 C-50.41021484 106.81921936 -50.14660156 105.55378296 -49.875 104.25 C-49.59544621 102.86359752 -49.31615875 101.47714131 -49.03710938 100.09063721 C-48.07215617 95.36744845 -47.05287142 90.65650925 -46.03125 85.9453125 C-45.65749003 84.20951963 -45.28400064 82.47366848 -44.9107666 80.73776245 C-44.13316666 77.12511046 -43.3529931 73.51302758 -42.57080078 69.90136719 C-41.57133647 65.28593231 -40.5773831 60.66933197 -39.58521271 56.0523243 C-38.81664258 52.47792376 -38.04569022 48.90404041 -37.27397156 45.33031845 C-36.90658172 43.6280925 -36.53980187 41.92573477 -36.17366028 40.2232399 C-35.66172924 37.84509172 -35.14671514 35.46763154 -34.63085938 33.09033203 C-34.48222946 32.3972142 -34.33359955 31.70409637 -34.1804657 30.98997498 C-31.32453454 17.88835684 -26.2599548 11.519994 -14.9375 4.1875 C-9.75902765 1.02080828 -6.08846732 0.07723214 0 0 Z " fill="#1237FF" transform="translate(359.875,1593.75)"/>
<path d="M0 0 C0.66 0 1.32 0 2 0 C2 14.52 2 29.04 2 44 C-2.3816433 42.90458918 -5.04348653 41.32918323 -8 38 C-11.72148314 31.77447059 -11.94052111 24.65557951 -10.53125 17.6796875 C-8.58006097 11.01312497 -4.91362739 4.91362739 0 0 Z " fill="#2949FA" transform="translate(591,1706)"/>
</svg>
